<svg width="24" height="24" viewBox="0 0 24 24" fill="none" xmlns="http://www.w3.org/2000/svg">
<g opacity="0.4">
<path d="M21 11.4023C21 11.543 20.874 11.6572 20.6221 11.7451C20.3701 11.833 20.001 11.8945 19.5146 11.9297C19.0283 11.9648 18.627 11.9854 18.3105 11.9912C17.9941 11.9971 17.5781 12 17.0625 12C16.5469 12 16.1309 11.9971 15.8145 11.9912C15.498 11.9854 15.0967 11.9648 14.6104 11.9297C14.124 11.8945 13.7549 11.833 13.5029 11.7451C13.251 11.6572 13.125 11.543 13.125 11.4023C13.1367 10.9102 13.4062 10.4707 13.9336 10.084C14.4609 9.69727 15.1289 9.43359 15.9375 9.29297V8.94141C14.8125 8.44922 14.25 7.21875 14.25 5.25C14.25 4.51172 14.5137 3.95215 15.041 3.57129C15.5684 3.19043 16.2451 3 17.0713 3C17.8975 3 18.5713 3.19043 19.0928 3.57129C19.6143 3.95215 19.875 4.51172 19.875 5.25C19.875 7.27734 19.3125 8.51367 18.1875 8.95898V9.29297C19.0078 9.43359 19.6787 9.69727 20.2002 10.084C20.7217 10.4707 20.9883 10.9102 21 11.4023ZM6.9375 12C6.42188 12 6.00586 11.9971 5.68945 11.9912C5.37305 11.9854 4.97168 11.9648 4.48535 11.9297C3.99902 11.8945 3.62988 11.833 3.37793 11.7451C3.12598 11.6572 3 11.543 3 11.4023C3.01172 10.9102 3.27832 10.4707 3.7998 10.084C4.32129 9.69727 4.99219 9.43359 5.8125 9.29297V8.94141C4.6875 8.44922 4.125 7.21875 4.125 5.25C4.125 4.51172 4.38574 3.95215 4.90723 3.57129C5.42871 3.19043 6.10254 3 6.92871 3C7.75488 3 8.43164 3.19043 8.95898 3.57129C9.48633 3.95215 9.75 4.51172 9.75 5.25C9.75 7.27734 9.1875 8.51367 8.0625 8.95898V9.29297C8.87109 9.43359 9.53906 9.69727 10.0664 10.084C10.5938 10.4707 10.8633 10.9102 10.875 11.4023C10.875 11.543 10.749 11.6572 10.4971 11.7451C10.2451 11.833 9.87598 11.8945 9.38965 11.9297C8.90332 11.9648 8.50195 11.9854 8.18555 11.9912C7.86914 11.9971 7.45312 12 6.9375 12ZM6.36621 13.125C6.67676 13.125 6.94336 13.2334 7.16602 13.4502C7.38867 13.667 7.5 13.9336 7.5 14.25V18.1875C7.5 18.3398 7.55566 18.4717 7.66699 18.583C7.77832 18.6943 7.91016 18.75 8.0625 18.75H15.9375C16.0898 18.75 16.2217 18.6943 16.333 18.583C16.4443 18.4717 16.5 18.3398 16.5 18.1875V14.25C16.5 13.9336 16.6113 13.667 16.834 13.4502C17.0566 13.2334 17.3232 13.125 17.6338 13.125C17.9443 13.125 18.208 13.2334 18.4248 13.4502C18.6416 13.667 18.75 13.9336 18.75 14.25V18.75C18.75 19.3711 18.5303 19.9014 18.0908 20.3408C17.6514 20.7803 17.1211 21 16.5 21H7.5C6.87891 21 6.34863 20.7803 5.90918 20.3408C5.46973 19.9014 5.25 19.3711 5.25 18.75V14.25C5.25 13.9336 5.3584 13.667 5.5752 13.4502C5.79199 13.2334 6.05566 13.125 6.36621 13.125Z" fill="#E3E6EC"/>
</g>
</svg>
