<svg width="20" height="22" viewBox="0 0 20 22" fill="none" xmlns="http://www.w3.org/2000/svg">
<g opacity="0.4">
<path fill-rule="evenodd" clip-rule="evenodd" d="M1.60082 12.7871V12.5681C1.63257 11.9202 1.83777 11.2925 2.19527 10.7496C2.79034 10.0975 3.19769 9.2983 3.37459 8.43598C3.37459 7.7695 3.37459 7.0935 3.43212 6.42703C3.72935 3.21842 6.86461 1 9.96152 1H10.0382C13.1351 1 16.2704 3.21842 16.5772 6.42703C16.6347 7.0935 16.5772 7.7695 16.6251 8.43598C16.8044 9.3003 17.2114 10.1019 17.8045 10.7591C18.1646 11.2972 18.3702 11.9227 18.3989 12.5681V12.7776C18.4203 13.648 18.1241 14.4968 17.5648 15.1674C16.8257 15.9515 15.8228 16.4393 14.7459 16.5384C11.5881 16.8812 8.40206 16.8812 5.24424 16.5384C4.16857 16.435 3.16711 15.9479 2.42539 15.1674C1.87474 14.4963 1.58246 13.6526 1.60082 12.7871Z" stroke="#E3E6EC" stroke-width="1.5" stroke-linecap="round" stroke-linejoin="round"/>
<path d="M7.58284 19.8518C8.07624 20.4785 8.8008 20.884 9.59616 20.9788C10.3915 21.0735 11.1921 20.8495 11.8207 20.3564C12.0141 20.2106 12.188 20.041 12.3385 19.8518" stroke="#E3E6EC" stroke-width="1.5" stroke-linecap="round" stroke-linejoin="round"/>
</g>
</svg>
