<svg width="24" height="24" viewBox="0 0 24 24" fill="none" xmlns="http://www.w3.org/2000/svg">
<g opacity="0.4">
<path d="M11.5 0C10.4118 0 9.64318 0.791111 9.26318 1.77778H2V24H21V1.77778H13.7368C13.3568 0.791111 12.5882 0 11.5 0ZM11.5 1.77778C11.975 1.77778 12.3636 2.17778 12.3636 2.66667V3.55556H14.9545V5.33333H8.04545V3.55556H10.6364V2.66667C10.6364 2.17778 11.025 1.77778 11.5 1.77778ZM3.72727 3.55556H6.31818V7.11111H16.6818V3.55556H19.2727V22.2222H3.72727V3.55556ZM5.45455 9.77778V11.5556H7.18182V9.77778H5.45455ZM8.90909 9.77778V11.5556H17.5455V9.77778H8.90909ZM5.45455 13.3333V15.1111H7.18182V13.3333H5.45455ZM8.90909 13.3333V15.1111H17.5455V13.3333H8.90909ZM5.45455 16.8889V18.6667H7.18182V16.8889H5.45455ZM8.90909 16.8889V18.6667H17.5455V16.8889H8.90909Z" fill="#E3E6EC"/>
</g>
</svg>
