<svg width="11" height="10" viewBox="0 0 11 10" fill="none" xmlns="http://www.w3.org/2000/svg">
<path fill-rule="evenodd" clip-rule="evenodd" d="M5.72001 0.833333C6.82376 0.833333 7.88626 1.27083 8.66543 2.05417C9.44876 2.83792 9.88668 3.89583 9.88668 5.00417C9.88668 6.4625 9.11959 7.81667 7.86959 8.57083C6.61959 9.325 5.06543 9.36667 3.77418 8.67917H3.76126C3.68994 8.65054 3.62654 8.60963 3.56348 8.56894C3.51638 8.53854 3.46947 8.50827 3.41959 8.48333C3.29084 8.42917 3.14459 8.42083 3.01168 8.46292C2.70293 8.57083 2.39043 8.65833 2.06959 8.73333C1.90293 8.7375 1.85293 8.6375 1.85293 8.475C1.92793 8.14583 2.02793 7.82042 2.14501 7.50417C2.19043 7.36667 2.17834 7.22083 2.10751 7.09125L2.02418 6.92917C1.71543 6.34167 1.55334 5.6875 1.55334 5.02542V5C1.55334 3.89583 1.99043 2.83333 2.77376 2.05417C3.55709 1.27083 4.61543 0.833333 5.72001 0.833333ZM3.79876 5.53749C3.50292 5.53749 3.26542 5.29583 3.26542 5.00416C3.26542 4.70833 3.50292 4.47083 3.79876 4.47083C4.09042 4.47083 4.33251 4.70833 4.33251 5.00416C4.33251 5.29583 4.09042 5.53749 3.79876 5.53749ZM5.18626 5.00416C5.18626 5.29583 5.42418 5.53749 5.72001 5.53749C6.01585 5.53749 6.25293 5.29583 6.25293 5.00416C6.25293 4.70833 6.01585 4.47083 5.72001 4.47083C5.42418 4.47083 5.18626 4.70833 5.18626 5.00416ZM7.1075 5.00416C7.1075 5.29583 7.34875 5.53749 7.64042 5.53749C7.93625 5.53749 8.17375 5.29583 8.17375 5.00416C8.17375 4.70833 7.93625 4.47083 7.64042 4.47083C7.34875 4.47083 7.1075 4.70833 7.1075 5.00416Z" fill="white"/>
</svg>
