<svg width="11" height="10" viewBox="0 0 11 10" fill="none" xmlns="http://www.w3.org/2000/svg">
<path fill-rule="evenodd" clip-rule="evenodd" d="M7.32382 1.04197C7.58674 1.04197 7.84924 1.07905 8.09882 1.1628C9.63674 1.6628 10.1909 3.3503 9.72799 4.8253C9.46549 5.57905 9.03632 6.26697 8.47424 6.82905C7.66965 7.60822 6.78674 8.29988 5.83632 8.89572L5.73215 8.95863L5.62382 8.89155C4.67007 8.29988 3.78215 7.60822 2.97007 6.82488C2.41174 6.2628 1.98215 5.57905 1.71549 4.8253C1.24465 3.3503 1.79882 1.6628 3.3534 1.15405C3.47424 1.11238 3.59882 1.08322 3.72382 1.06697H3.77382C3.8909 1.04988 4.00715 1.04197 4.12382 1.04197H4.16965C4.43215 1.04988 4.68632 1.09572 4.93257 1.17947H4.95715C4.97382 1.18738 4.98632 1.19613 4.99465 1.20405C5.08674 1.23363 5.17382 1.26697 5.25715 1.3128L5.41549 1.38363C5.45374 1.40404 5.49669 1.43522 5.5338 1.46216C5.55732 1.47924 5.57849 1.49461 5.59465 1.50447C5.60145 1.50848 5.60836 1.51251 5.61533 1.51658C5.65106 1.53744 5.68827 1.55916 5.71965 1.58322C6.18257 1.22947 6.74465 1.0378 7.32382 1.04197ZM8.43216 4.04197C8.60299 4.03738 8.74883 3.9003 8.76133 3.72488V3.6753C8.77383 3.09155 8.42008 2.5628 7.88216 2.35864C7.71133 2.29989 7.52383 2.39197 7.46133 2.56697C7.40299 2.74197 7.49466 2.93364 7.66966 2.99572C7.93674 3.09572 8.11549 3.35864 8.11549 3.64988V3.6628C8.10758 3.75822 8.13633 3.8503 8.19466 3.92113C8.25299 3.99197 8.34049 4.03322 8.43216 4.04197Z" fill="white"/>
</svg>
