<svg width="11" height="10" viewBox="0 0 11 10" fill="none" xmlns="http://www.w3.org/2000/svg">
<path fill-rule="evenodd" clip-rule="evenodd" d="M7.77781 1.25C8.33656 1.25 8.87406 1.47083 9.26947 1.86708C9.66531 2.2625 9.88656 2.79583 9.88656 3.35417V6.64583C9.88656 7.80833 8.94072 8.75 7.77781 8.75H3.66156C2.49864 8.75 1.55322 7.80833 1.55322 6.64583V3.35417C1.55322 2.19167 2.49447 1.25 3.66156 1.25H7.77781ZM8.44072 3.975L8.47405 3.94167C8.57364 3.82084 8.57364 3.64584 8.46947 3.525C8.41155 3.46292 8.33197 3.425 8.24905 3.41667C8.16155 3.41209 8.07822 3.44167 8.0153 3.5L6.13655 5C5.89489 5.20042 5.54864 5.20042 5.30322 5L3.42822 3.5C3.29864 3.40417 3.11947 3.41667 3.01155 3.52917C2.89905 3.64167 2.88655 3.82084 2.98197 3.94584L3.03655 4L4.93239 5.47917C5.16572 5.6625 5.44864 5.7625 5.74489 5.7625C6.0403 5.7625 6.32822 5.6625 6.56114 5.47917L8.44072 3.975Z" fill="white"/>
</svg>
