<svg width="11" height="10" viewBox="0 0 11 10" fill="none" xmlns="http://www.w3.org/2000/svg">
<path fill-rule="evenodd" clip-rule="evenodd" d="M9.11261 4.3802L9.43344 6.87604C9.67136 8.5052 8.72511 9.1677 7.45427 9.1677H4.00011C2.72552 9.1677 1.75011 8.70937 2.01261 6.87604L2.33761 4.3802C2.38761 4.00937 2.56677 3.66354 2.84594 3.40937C3.05886 3.22229 3.33344 3.12187 3.61677 3.12187V3.02604C3.58344 2.2552 3.97969 1.52604 4.64594 1.1302C5.31261 0.73437 6.14594 0.73437 6.81261 1.1302C7.47927 1.52604 7.87094 2.2552 7.84177 3.02604V3.12187C8.36677 3.12187 8.92094 3.48854 9.11261 4.3802ZM4.25011 3.02604C4.25011 2.21771 4.90844 1.55937 5.72094 1.55937C6.53761 1.55937 7.19594 2.21771 7.19594 3.02604V3.11812H4.25011V3.02604ZM4.1376 4.83021C4.1376 5.03021 4.30427 5.19687 4.50843 5.19687C4.7126 5.19687 4.8751 5.03021 4.8751 4.83021C4.8751 4.62604 4.7126 4.46354 4.50843 4.46354C4.30427 4.46354 4.1376 4.62604 4.1376 4.83021ZM6.92511 5.19687C7.02094 5.19687 7.11677 5.15937 7.18344 5.08854C7.25427 5.02187 7.29177 4.92604 7.29177 4.83021C7.29177 4.62604 7.12511 4.46354 6.92511 4.46354C6.72136 4.46354 6.55427 4.62604 6.55427 4.83021C6.55427 5.03021 6.72136 5.19687 6.92511 5.19687Z" fill="white"/>
</svg>
