<svg width="24" height="24" viewBox="0 0 24 24" fill="none" xmlns="http://www.w3.org/2000/svg">
<path d="M19.5 16.5C18.9703 16.5026 18.4515 16.6505 18 16.9275L15.6825 14.6025C16.2218 13.8418 16.5114 12.9324 16.5114 12C16.5114 11.0676 16.2218 10.1582 15.6825 9.3975L18 7.0725C18.4515 7.34955 18.9703 7.49741 19.5 7.5C20.0933 7.5 20.6734 7.32405 21.1667 6.99441C21.6601 6.66477 22.0446 6.19623 22.2716 5.64805C22.4987 5.09987 22.5581 4.49667 22.4424 3.91473C22.3266 3.33279 22.0409 2.79824 21.6213 2.37868C21.2018 1.95912 20.6672 1.6734 20.0853 1.55765C19.5033 1.44189 18.9001 1.5013 18.352 1.72836C17.8038 1.95543 17.3352 2.33994 17.0056 2.83329C16.676 3.32664 16.5 3.90666 16.5 4.5C16.5026 5.0297 16.6505 5.54853 16.9275 6L14.6025 8.3175C13.8418 7.77825 12.9324 7.4886 12 7.4886C11.0676 7.4886 10.1582 7.77825 9.3975 8.3175L7.0725 6C7.34955 5.54853 7.49741 5.0297 7.5 4.5C7.5 3.90666 7.32405 3.32664 6.99441 2.83329C6.66477 2.33994 6.19623 1.95543 5.64805 1.72836C5.09987 1.5013 4.49667 1.44189 3.91473 1.55765C3.33279 1.6734 2.79824 1.95912 2.37868 2.37868C1.95912 2.79824 1.6734 3.33279 1.55765 3.91473C1.44189 4.49667 1.5013 5.09987 1.72836 5.64805C1.95543 6.19623 2.33994 6.66477 2.83329 6.99441C3.32664 7.32405 3.90666 7.5 4.5 7.5C5.0297 7.49741 5.54853 7.34955 6 7.0725L8.3175 9.3975C7.77825 10.1582 7.4886 11.0676 7.4886 12C7.4886 12.9324 7.77825 13.8418 8.3175 14.6025L6 16.9275C5.54853 16.6505 5.0297 16.5026 4.5 16.5C3.90666 16.5 3.32664 16.676 2.83329 17.0056C2.33994 17.3352 1.95543 17.8038 1.72836 18.352C1.5013 18.9001 1.44189 19.5033 1.55765 20.0853C1.6734 20.6672 1.95912 21.2018 2.37868 21.6213C2.79824 22.0409 3.33279 22.3266 3.91473 22.4424C4.49667 22.5581 5.09987 22.4987 5.64805 22.2716C6.19623 22.0446 6.66477 21.6601 6.99441 21.1667C7.32405 20.6734 7.5 20.0933 7.5 19.5C7.49741 18.9703 7.34955 18.4515 7.0725 18L9.3975 15.6825C10.1582 16.2218 11.0676 16.5114 12 16.5114C12.9324 16.5114 13.8418 16.2218 14.6025 15.6825L16.9275 18C16.6505 18.4515 16.5026 18.9703 16.5 19.5C16.5 20.0933 16.676 20.6734 17.0056 21.1667C17.3352 21.6601 17.8038 22.0446 18.352 22.2716C18.9001 22.4987 19.5033 22.5581 20.0853 22.4424C20.6672 22.3266 21.2018 22.0409 21.6213 21.6213C22.0409 21.2018 22.3266 20.6672 22.4424 20.0853C22.5581 19.5033 22.4987 18.9001 22.2716 18.352C22.0446 17.8038 21.6601 17.3352 21.1667 17.0056C20.6734 16.676 20.0933 16.5 19.5 16.5ZM12 15C11.4067 15 10.8266 14.8241 10.3333 14.4944C9.83994 14.1648 9.45543 13.6962 9.22836 13.1481C9.0013 12.5999 8.94189 11.9967 9.05765 11.4147C9.1734 10.8328 9.45912 10.2982 9.87868 9.87868C10.2982 9.45912 10.8328 9.1734 11.4147 9.05765C11.9967 8.94189 12.5999 9.0013 13.1481 9.22836C13.6962 9.45543 14.1648 9.83994 14.4944 10.3333C14.8241 10.8266 15 11.4067 15 12C15 12.7957 14.6839 13.5587 14.1213 14.1213C13.5587 14.6839 12.7957 15 12 15Z" fill="#6C5DD3"/>
</svg>
