<svg width="24" height="23" viewBox="0 0 24 23" fill="none" xmlns="http://www.w3.org/2000/svg">
<path fill-rule="evenodd" clip-rule="evenodd" d="M17.4801 7.08058C17.773 6.78769 17.773 6.31281 17.4801 6.01992C17.1872 5.72703 16.7123 5.72703 16.4194 6.01992L11.8232 10.6161L7.22703 6.01992C6.93414 5.72703 6.45927 5.72703 6.16637 6.01992C5.87348 6.31281 5.87348 6.78769 6.16637 7.08058L10.7626 11.6768L6.16637 16.273C5.87348 16.5659 5.87348 17.0407 6.16637 17.3336C6.45927 17.6265 6.93414 17.6265 7.22703 17.3336L11.8232 12.7374L16.4194 17.3336C16.7123 17.6265 17.1872 17.6265 17.4801 17.3336C17.773 17.0407 17.773 16.5659 17.4801 16.273L12.8839 11.6768L17.4801 7.08058Z" fill="#1B1D21"/>
</svg>
