<svg width="124" height="43" viewBox="0 0 124 43" fill="none" xmlns="http://www.w3.org/2000/svg">
<path d="M56.7799 29.9212C56.7799 31.6625 56.1457 33.0007 54.8774 33.9359C53.609 34.8603 51.7925 35.3225 49.4278 35.3225C47.0523 35.3225 45.1444 34.9624 43.7041 34.2422V30.9692C45.8001 31.9366 47.751 32.4203 49.5568 32.4203C51.8893 32.4203 53.0555 31.7163 53.0555 30.3082C53.0555 29.8567 52.9265 29.4805 52.6685 29.1796C52.4106 28.8786 51.986 28.5669 51.3948 28.2444C50.8036 27.922 49.9814 27.5565 48.928 27.1481C46.875 26.3527 45.483 25.5573 44.7521 24.7618C44.0319 23.9664 43.6719 22.9346 43.6719 21.6662C43.6719 20.1399 44.2845 18.9575 45.5099 18.1191C46.746 17.27 48.4228 16.8454 50.5403 16.8454C52.6363 16.8454 54.6194 17.27 56.4897 18.1191L55.2643 20.9729C53.3403 20.1775 51.7226 19.7798 50.4113 19.7798C48.412 19.7798 47.4124 20.3495 47.4124 21.4889C47.4124 22.0478 47.6704 22.5207 48.1863 22.9077C48.713 23.2946 49.8524 23.8267 51.6044 24.5039C53.077 25.0736 54.1465 25.5949 54.8129 26.0678C55.4793 26.5408 55.9738 27.0889 56.2962 27.7124C56.6187 28.325 56.7799 29.0613 56.7799 29.9212ZM66.8461 32.2591C67.7705 32.2591 68.6949 32.114 69.6193 31.8238V34.6775C69.2001 34.8603 68.6572 35.0107 67.9908 35.129C67.3352 35.258 66.6526 35.3225 65.9432 35.3225C62.3531 35.3225 60.5581 33.4307 60.5581 29.6471V20.0378H58.1235V18.361L60.7354 16.9744L62.0253 13.2016H64.3631V17.1679H69.4419V20.0378H64.3631V29.5826C64.3631 30.4963 64.5889 31.1735 65.0403 31.6142C65.5025 32.0441 66.1044 32.2591 66.8461 32.2591ZM88.3274 26.0517C88.3274 28.9646 87.5804 31.2379 86.0863 32.8718C84.5922 34.5056 82.5123 35.3225 79.8467 35.3225C78.1806 35.3225 76.708 34.9463 75.4289 34.1938C74.1498 33.4414 73.1663 32.3612 72.4784 30.9531C71.7905 29.545 71.4465 27.9112 71.4465 26.0517C71.4465 23.1603 72.1882 20.9031 73.6715 19.28C75.1548 17.6569 77.2455 16.8454 79.9434 16.8454C82.5231 16.8454 84.5653 17.6784 86.0702 19.3445C87.575 20.9998 88.3274 23.2355 88.3274 26.0517ZM75.3483 26.0517C75.3483 30.1685 76.8693 32.2268 79.9112 32.2268C82.9208 32.2268 84.4256 30.1685 84.4256 26.0517C84.4256 21.9779 82.91 19.941 79.8789 19.941C78.2881 19.941 77.1326 20.4677 76.4124 21.5211C75.703 22.5745 75.3483 24.0847 75.3483 26.0517ZM101.054 16.8454C101.817 16.8454 102.446 16.8992 102.94 17.0066L102.569 20.5376C102.032 20.4086 101.473 20.3441 100.893 20.3441C99.3771 20.3441 98.1464 20.8386 97.2005 21.8274C96.2653 22.8163 95.7978 24.1008 95.7978 25.6809V35H92.0088V17.1679H94.9755L95.4753 20.3119H95.6688C96.26 19.2478 97.0285 18.404 97.9744 17.7806C98.931 17.1571 99.9575 16.8454 101.054 16.8454ZM109.234 25.5841L111.378 22.9077L116.763 17.1679H121.132L113.958 24.8263L121.584 35H117.134L111.41 27.1803L109.33 28.8894V35H105.574V9.9125H109.33V22.1499L109.137 25.5841H109.234Z" fill="white"/>
<path d="M26.7056 39.8147C26.2858 39.8144 25.8715 39.7194 25.4935 39.5365C25.1155 39.3537 24.7834 39.0877 24.5222 38.7585C23.7137 37.8839 17.4652 31.7346 13.6364 27.9855C13.3714 27.7296 13.1595 27.4237 13.013 27.0854C12.8666 26.7472 12.7883 26.3832 12.7828 26.0144C12.7773 25.6457 12.8447 25.2795 12.981 24.937C13.1174 24.5944 13.32 24.2824 13.5773 24.0186C13.8345 23.7549 14.1413 23.5448 14.4799 23.4003C14.8186 23.2558 15.1824 23.1801 15.5504 23.1771C15.9185 23.174 16.2835 23.2441 16.6244 23.383C16.9653 23.5221 17.2754 23.7273 17.5368 23.9869C17.5641 24.0137 20.3217 26.7142 23.0587 29.4118L23.9163 30.2573V17.1259C23.9163 12.0193 19.8037 7.86464 14.7484 7.86464C9.69304 7.86464 5.58046 12.0193 5.58046 17.1259V37.0189C5.58046 37.7603 5.28648 38.4714 4.76322 38.9957C4.23995 39.5199 3.53024 39.8144 2.79022 39.8144C2.05021 39.8144 1.34051 39.5199 0.817239 38.9957C0.29397 38.4714 0 37.7603 0 37.0189V17.1259C0 8.93618 6.61607 2.27344 14.7484 2.27344C22.8806 2.27344 29.4967 8.93618 29.4967 17.1259V37.0189C29.4964 37.7603 29.2023 38.4714 28.6789 38.9958C28.1555 39.5201 27.4457 39.8146 26.7056 39.8147ZM24.1689 38.1805L24.17 38.183L24.1689 38.1805Z" fill="white"/>
<path d="M14.7472 19.816C16.5084 19.816 17.9361 18.3856 17.9361 16.621C17.9361 14.8565 16.5084 13.426 14.7472 13.426C12.9861 13.426 11.5583 14.8565 11.5583 16.621C11.5583 18.3856 12.9861 19.816 14.7472 19.816Z" fill="#5F75EE"/>
</svg>
