<svg width="22" height="22" viewBox="0 0 22 22" fill="none" xmlns="http://www.w3.org/2000/svg">
<path d="M10.25 10.2404V10.9904C10.6642 10.9904 11 10.6547 11 10.2404H10.25ZM10.25 11.7404H11C11 11.3262 10.6642 10.9904 10.25 10.9904V11.7404ZM11.75 11.7404V10.9904C11.3358 10.9904 11 11.3262 11 11.7404H11.75ZM11.75 10.2404H11C11 10.6547 11.3358 10.9904 11.75 10.9904V10.2404ZM11 7.32727H12.5C12.5 6.49884 11.8284 5.82727 11 5.82727V7.32727ZM11 7.32727H11V5.82727C10.1716 5.82727 9.5 6.49884 9.5 7.32727H11ZM11 10.2404V7.32727H9.5V10.2404H11ZM7.33334 10.9904H10.25V9.49045H7.33334V10.9904ZM7.33334 10.9904V9.49045C6.50491 9.49045 5.83334 10.162 5.83334 10.9904H7.33334ZM7.33334 10.9904H5.83334C5.83334 11.8189 6.50491 12.4904 7.33334 12.4904V10.9904ZM10.25 10.9904H7.33334V12.4904H10.25V10.9904ZM11 14.6536V11.7404H9.5V14.6536H11ZM11 14.6536H11H9.5C9.5 15.4821 10.1716 16.1536 11 16.1536V14.6536ZM11 14.6536V16.1536C11.8284 16.1536 12.5 15.4821 12.5 14.6536H11ZM11 11.7404V14.6536H12.5V11.7404H11ZM14.6667 10.9904H11.75V12.4904H14.6667V10.9904ZM14.6667 10.9904V12.4904C15.4951 12.4904 16.1667 11.8189 16.1667 10.9904H14.6667ZM14.6667 10.9904H16.1667C16.1667 10.162 15.4951 9.49045 14.6667 9.49045V10.9904ZM11.75 10.9904H14.6667V9.49045H11.75V10.9904ZM11 7.32727V10.2404H12.5V7.32727H11Z" fill="white"/>
<path fill-rule="evenodd" clip-rule="evenodd" d="M15.6857 1H6.31429C3.04762 1 1 3.31208 1 6.58516V15.4148C1 18.6879 3.0381 21 6.31429 21H15.6857C18.9619 21 21 18.6879 21 15.4148V6.58516C21 3.31208 18.9619 1 15.6857 1Z" stroke="white" stroke-width="1.5" stroke-linecap="round" stroke-linejoin="round"/>
</svg>
