<svg width="19" height="24" viewBox="0 0 19 24" fill="none" xmlns="http://www.w3.org/2000/svg">
<path d="M10.2153 14.184C11.4387 14.184 12.4305 13.1922 12.4305 11.9687C12.4305 10.7452 11.4387 9.75342 10.2153 9.75342C8.99181 9.75342 8 10.7452 8 11.9687C8 13.1922 8.99181 14.184 10.2153 14.184Z" fill="#6C5DD3"/>
<path d="M10.2153 6.43055C11.4387 6.43055 12.4305 5.43874 12.4305 4.21527C12.4305 2.99181 11.4387 2 10.2153 2C8.99181 2 8 2.99181 8 4.21527C8 5.43874 8.99181 6.43055 10.2153 6.43055Z" fill="#6C5DD3"/>
<path d="M10.2153 21.9375C11.4387 21.9375 12.4305 20.9457 12.4305 19.7222C12.4305 18.4988 11.4387 17.507 10.2153 17.507C8.99181 17.507 8 18.4988 8 19.7222C8 20.9457 8.99181 21.9375 10.2153 21.9375Z" fill="#6C5DD3"/>
</svg>
